<?xml version="1.0" standalone="no"?>
<!DOCTYPE svg PUBLIC "-//W3C//DTD SVG 20010904//EN"
 "http://www.w3.org/TR/2001/REC-SVG-20010904/DTD/svg10.dtd">
<svg version="1.0" xmlns="http://www.w3.org/2000/svg"
 width="728.000000pt" height="208.000000pt" viewBox="0 0 728.000000 208.000000"
 preserveAspectRatio="xMidYMid meet">

<g transform="translate(0.000000,208.000000) scale(0.100000,-0.100000)"
fill="#000000" stroke="none">
<path d="M0 1040 l0 -1040 3640 0 3640 0 0 1040 0 1040 -3640 0 -3640 0 0
-1040z m5933 685 c7 -17 -9 -30 -18 -15 -7 12 -25 4 -25 -11 0 -5 7 -9 15 -9
18 0 20 -17 4 -22 -7 -2 -10 -10 -8 -17 4 -11 8 -10 21 3 22 21 28 20 28 -4 0
-11 -6 -20 -12 -20 -7 0 -23 -3 -34 -6 -19 -5 -22 0 -28 40 -4 25 -12 46 -19
46 -16 0 4 17 28 23 35 8 43 7 48 -8z m102 6 c3 -5 0 -13 -6 -17 -6 -3 -15 0
-20 7 -6 11 -11 11 -20 2 -9 -9 -6 -13 14 -18 14 -4 28 -14 31 -22 8 -20 -11
-43 -34 -43 -22 0 -45 26 -31 34 5 4 12 2 16 -4 8 -13 35 -13 35 0 0 6 -6 10
-13 10 -24 0 -51 26 -44 44 7 17 62 23 72 7z m115 -7 c0 -11 -6 -14 -20 -9
-20 6 -25 -8 -23 -62 1 -7 -8 -13 -18 -13 -16 0 -18 3 -9 19 13 25 13 71 0 71
-5 0 -10 -5 -10 -11 0 -5 -4 -7 -10 -4 -23 14 -7 25 40 25 39 0 50 -4 50 -16z
m79 -62 c7 -48 6 -52 -12 -52 -14 0 -17 5 -13 17 4 9 1 20 -6 25 -19 12 -28
10 -28 -7 0 -8 -9 -15 -20 -15 -11 0 -20 5 -20 10 0 6 4 10 9 10 4 0 21 19 36
41 32 49 42 43 54 -29z m-409 23 c6 -8 9 -19 5 -24 -3 -6 3 -16 15 -23 11 -7
20 -16 20 -20 0 -15 -29 -8 -38 8 -5 9 -15 15 -22 12 -10 -3 -9 -8 4 -20 21
-21 20 -28 -3 -28 -12 0 -21 10 -26 28 -3 15 -14 35 -22 44 -14 16 -14 18 8
27 34 14 45 13 59 -4z m490 -2 c0 -2 -7 -11 -15 -19 -20 -20 -20 -64 0 -64 16
0 48 54 38 64 -4 3 1 6 10 6 9 0 19 -4 22 -10 3 -5 2 -10 -3 -10 -4 0 -16 -16
-25 -35 -16 -34 -30 -41 -61 -29 -19 7 -20 35 -4 80 7 20 16 30 25 27 7 -3 13
-7 13 -10z m118 -66 l22 -24 -20 -25 c-21 -28 -27 -58 -10 -58 5 0 25 7 44 16
19 9 42 14 51 10 15 -6 15 -9 -4 -42 -12 -19 -21 -42 -21 -50 0 -8 -5 -14 -10
-14 -16 0 -24 31 -11 39 9 6 8 11 -4 21 -14 12 -18 12 -25 0 -7 -11 -13 -9
-33 10 -20 19 -23 29 -16 47 5 14 4 25 -2 29 -6 3 -13 -3 -16 -15 -6 -22 -18
-27 -28 -11 -3 5 3 20 14 32 12 12 23 30 27 40 7 24 16 23 42 -5z m-728 -17
c21 -21 23 -29 14 -54 -10 -27 -40 -37 -69 -24 -33 15 -43 53 -20 78 23 25 50
25 75 0z m-90 -80 c11 -11 20 -26 20 -34 0 -19 -49 -76 -50 -58 0 16 -40 51
-57 52 -21 0 -15 17 13 39 33 26 49 26 74 1z m976 -65 c3 -8 -1 -24 -10 -37
-22 -30 -20 -41 3 -26 11 7 17 16 15 20 -9 14 13 8 26 -7 7 -8 10 -15 6 -15
-3 0 -8 0 -11 0 -3 0 -22 -11 -43 -25 -43 -30 -54 -17 -27 35 16 30 16 31 -4
21 -10 -6 -21 -16 -23 -23 -4 -12 -28 -3 -28 10 0 4 16 16 35 26 19 11 35 23
35 28 0 14 20 9 26 -7z m-1031 -66 c0 -27 -5 -35 -27 -43 -22 -8 -32 -6 -48 9
-33 30 -24 78 15 87 34 8 60 -15 60 -53z m346 -74 l5 -80 2 83 c2 80 3 82 27
82 24 0 25 -2 27 -82 l2 -83 3 83 c4 79 5 83 26 80 21 -3 22 -8 25 -114 2 -90
0 -113 -13 -124 -12 -10 -15 -42 -15 -179 0 -117 -4 -171 -12 -179 -18 -18
-85 -15 -92 4 -3 9 -6 89 -6 179 0 132 -3 165 -15 175 -12 10 -15 37 -15 120
0 58 3 110 7 114 4 4 14 5 23 4 11 -3 16 -22 21 -83z m317 -217 l-3 -303 -45
0 -45 0 -5 110 c-4 86 -9 116 -24 138 -17 25 -18 41 -13 157 3 71 10 138 16
149 15 26 58 50 94 51 l27 0 -2 -302z m447 182 c-11 -18 -26 -10 -20 10 3 11
4 20 1 20 -11 0 -61 -25 -69 -35 -6 -7 -10 -6 -14 2 -6 17 -5 28 5 29 4 0 19
4 35 8 29 9 35 21 15 29 -10 4 -9 8 2 16 12 9 18 3 33 -29 10 -22 15 -45 12
-50z m-1177 44 c23 -16 29 -57 13 -83 -7 -11 -13 -11 -32 3 -13 9 -34 16 -46
16 -30 0 -30 24 2 55 28 29 33 30 63 9z m-4814 -78 c113 -66 113 -236 2 -301
-37 -21 -55 -25 -129 -25 -81 0 -87 1 -87 20 0 11 7 23 15 26 12 5 15 29 15
129 0 100 -3 124 -15 129 -8 3 -15 15 -15 26 0 19 6 20 87 20 73 0 92 -4 127
-24z m373 4 c71 -43 97 -175 50 -253 -35 -58 -71 -77 -144 -77 -56 0 -66 3
-99 32 -20 18 -43 47 -50 65 -33 78 -5 186 58 231 43 29 138 31 185 2z m310 9
c109 -41 144 -187 66 -280 -38 -45 -80 -59 -173 -59 -79 0 -80 0 -80 25 0 16
6 25 15 25 13 0 15 21 15 125 0 104 -2 125 -15 125 -9 0 -15 9 -15 25 0 25 1
25 79 25 44 0 92 -5 108 -11z m407 -21 c66 -54 85 -141 47 -224 -29 -64 -76
-94 -147 -94 -105 0 -167 63 -168 169 0 114 62 181 169 181 53 0 65 -4 99 -32z
m416 17 c55 -29 66 -85 25 -133 l-24 -29 19 -39 c11 -21 20 -47 20 -57 0 -10
9 -21 20 -24 13 -3 20 -14 20 -29 0 -21 -5 -24 -39 -24 l-39 0 -17 70 c-18 74
-32 90 -79 90 -25 0 -26 -3 -26 -55 0 -42 3 -55 15 -55 9 0 15 -9 15 -25 0
-24 -3 -25 -60 -25 -54 0 -60 2 -60 21 0 12 8 23 20 26 19 5 20 14 20 128 0
114 -1 123 -20 128 -12 3 -20 14 -20 26 0 20 5 21 90 21 62 0 100 -5 120 -15z
m380 -35 c0 -47 -2 -50 -25 -50 -20 0 -25 5 -25 25 0 24 -3 25 -60 25 l-60 0
0 -50 0 -50 50 0 c43 0 50 -3 50 -20 0 -17 -7 -20 -50 -20 l-50 0 0 -55 0 -55
60 0 c57 0 60 1 60 25 0 20 5 25 25 25 23 0 25 -3 25 -50 l0 -50 -125 0 -125
0 0 25 c0 16 6 25 15 25 13 0 15 21 15 125 0 104 -2 125 -15 125 -9 0 -15 9
-15 25 l0 25 125 0 125 0 0 -50z m245 18 c44 -42 46 -68 5 -68 -23 0 -33 6
-40 24 -18 49 -115 38 -115 -14 0 -26 7 -30 106 -74 48 -20 59 -30 69 -60 9
-29 9 -41 -5 -69 -20 -42 -51 -57 -116 -57 -43 0 -54 5 -89 38 -51 48 -53 72
-5 72 28 0 35 -4 35 -19 0 -27 27 -45 65 -45 41 0 65 19 65 50 0 26 -26 43
-98 65 -83 24 -109 104 -53 160 26 25 37 29 85 29 48 0 60 -4 91 -32z m363
-15 c-3 -44 -5 -48 -28 -48 -20 0 -26 6 -28 28 -3 24 -7 27 -43 27 l-39 0 0
-130 c0 -109 2 -130 15 -130 9 0 15 -9 15 -25 0 -24 -3 -25 -60 -25 -54 0 -60
2 -60 21 0 12 8 23 20 26 19 5 20 14 20 134 l0 129 -34 0 c-30 0 -35 -3 -38
-27 -2 -22 -8 -28 -28 -28 -23 0 -25 4 -28 48 l-3 47 161 0 161 0 -3 -47z
m226 -105 c39 -115 55 -148 69 -148 11 0 17 -8 17 -25 0 -24 -3 -25 -60 -25
-54 0 -60 2 -60 20 0 11 6 23 14 26 11 4 12 12 3 40 l-11 35 -65 -3 c-61 -3
-65 -4 -74 -32 -8 -23 -6 -31 7 -38 9 -5 16 -18 16 -28 0 -18 -7 -20 -60 -20
-57 0 -60 1 -60 24 0 14 7 26 18 28 12 3 30 44 61 134 59 171 55 166 98 162
l36 -3 51 -147z m196 127 c0 -16 -6 -25 -15 -25 -12 0 -15 -18 -15 -99 0 -84
3 -102 21 -125 15 -19 30 -26 55 -26 74 0 94 37 94 173 0 70 -2 77 -20 77 -15
0 -20 7 -20 25 0 24 3 25 60 25 57 0 60 -1 60 -25 0 -15 -6 -25 -14 -25 -11 0
-15 -24 -18 -103 -5 -149 -40 -197 -144 -197 -37 0 -51 6 -82 34 l-37 34 -3
115 c-3 103 -6 116 -23 120 -11 3 -19 14 -19 26 0 19 6 21 60 21 57 0 60 -1
60 -25z m450 10 c56 -29 66 -85 24 -134 -23 -28 -24 -32 -10 -53 8 -13 18 -40
21 -60 5 -28 12 -38 26 -38 14 0 19 -7 19 -25 0 -22 -4 -25 -39 -25 -39 0 -39
0 -51 53 -21 88 -35 107 -82 107 -27 0 -28 -2 -28 -55 0 -42 3 -55 15 -55 9 0
15 -9 15 -25 0 -24 -3 -25 -60 -25 -54 0 -60 2 -60 21 0 12 8 23 20 26 19 5
20 14 20 128 0 114 -1 123 -20 128 -12 3 -20 14 -20 26 0 20 5 21 90 21 62 0
100 -5 120 -15z m359 -134 c40 -113 57 -150 72 -154 11 -3 19 -14 19 -26 0
-19 -6 -21 -60 -21 -57 0 -60 1 -60 24 0 13 5 26 12 28 8 3 8 12 1 34 -9 28
-13 29 -74 32 l-65 3 -11 -36 c-9 -29 -9 -35 3 -35 8 0 14 -10 14 -25 0 -24
-3 -25 -55 -25 -52 0 -55 1 -55 25 0 15 6 25 14 25 9 0 29 43 55 118 23 64 47
132 53 150 11 28 16 32 49 32 l36 0 52 -149z m294 12 l77 -138 0 113 c0 105
-1 112 -20 112 -15 0 -20 7 -20 25 0 24 3 25 60 25 57 0 60 -1 60 -25 0 -16
-6 -25 -15 -25 -13 0 -15 -23 -15 -150 l0 -150 -32 0 c-32 0 -36 5 -110 138
l-78 137 0 -111 c0 -103 1 -112 20 -117 12 -3 20 -14 20 -26 0 -19 -6 -21 -60
-21 -57 0 -60 1 -60 25 0 16 6 25 15 25 13 0 15 21 15 125 0 104 -2 125 -15
125 -9 0 -15 9 -15 25 0 23 3 25 48 25 l48 0 77 -137z m477 86 c0 -47 -2 -50
-22 -47 -17 2 -24 11 -26 31 -3 24 -7 27 -43 27 l-39 0 0 -129 c0 -120 1 -129
20 -134 12 -3 20 -14 20 -26 0 -19 -6 -21 -60 -21 -57 0 -60 1 -60 25 0 16 6
25 15 25 13 0 15 21 15 130 l0 130 -34 0 c-30 0 -35 -3 -38 -27 -2 -22 -8 -28
-28 -28 -23 0 -25 4 -28 48 l-3 47 155 0 156 0 0 -51z m298 -111 c30 -30 0
-75 -43 -64 -41 11 -29 76 15 76 9 0 21 -5 28 -12z m1202 -8 c15 -28 -4 -60
-35 -60 -31 0 -50 32 -35 60 6 12 21 20 35 20 14 0 29 -8 35 -20z m-1136 -182
c3 -13 6 -31 6 -40 0 -23 -44 -51 -68 -44 -25 8 -58 80 -34 74 15 -4 72 14 72
23 0 18 18 8 24 -13z m1036 2 c12 -8 12 -10 -3 -16 -29 -11 -19 -23 23 -30 22
-4 40 -12 40 -19 0 -18 -12 -26 -24 -17 -6 5 -24 13 -39 20 -25 11 -28 10 -25
-6 2 -9 -3 -16 -9 -14 -25 4 -12 -14 22 -32 46 -25 46 -46 -1 -46 -21 0 -33
-4 -29 -10 3 -5 15 -10 26 -10 16 0 18 -3 9 -19 -10 -19 -11 -19 -37 5 -14 13
-35 24 -45 24 -38 0 -11 25 33 30 42 5 43 6 22 18 -13 7 -23 10 -23 6 0 -4 -3
-5 -6 -1 -6 6 37 127 46 127 3 0 12 -4 20 -10z m-992 -102 c28 -28 0 -88 -41
-88 -23 0 -57 27 -57 44 0 6 7 22 16 34 17 24 62 30 82 10z m72 -123 c0 -32
-34 -59 -64 -51 -31 8 -56 48 -35 55 8 2 25 17 39 32 l25 28 18 -21 c9 -11 17
-30 17 -43z m843 3 c20 -7 37 -16 37 -20 0 -14 -21 -19 -34 -9 -10 8 -16 8
-25 -3 -10 -11 -9 -16 4 -23 15 -9 15 -11 0 -23 -8 -7 -17 -11 -18 -9 -1 2
-12 25 -24 50 -22 48 -20 64 7 55 8 -3 32 -11 53 -18z m-768 -52 c31 -46 -25
-102 -71 -71 -28 18 -31 41 -8 73 20 30 59 29 79 -2z m675 -10 c5 -13 17 -29
27 -34 10 -6 14 -14 10 -18 -4 -5 -17 -3 -27 4 -31 19 -45 14 -24 -9 15 -17
16 -22 4 -29 -11 -6 -17 -1 -26 19 -22 53 -54 54 -36 2 9 -25 7 -34 -7 -52
-23 -28 -55 -19 -71 21 -7 17 -17 30 -22 30 -5 0 -6 5 -3 10 12 20 31 9 44
-25 12 -34 33 -45 46 -25 4 6 -3 26 -14 46 -19 32 -20 35 -3 41 9 4 28 15 41
25 32 24 50 23 61 -6z m-560 -54 c22 -18 22 -19 6 -50 -9 -18 -14 -37 -11 -42
3 -6 -1 -10 -9 -10 -9 0 -16 12 -19 33 -4 29 -5 30 -12 10 -4 -13 -14 -23 -21
-23 -18 0 -18 -1 5 46 11 21 17 42 14 46 -9 15 25 8 47 -10z m114 -33 c11 -10
-17 -41 -49 -53 -16 -6 -17 -9 -5 -16 9 -5 19 -5 27 2 10 8 13 5 13 -12 0 -19
-4 -21 -32 -15 -45 10 -51 15 -38 31 7 7 12 29 13 49 1 34 2 35 31 29 17 -3
35 -10 40 -15z m257 -11 c13 -18 27 -36 32 -39 5 -4 6 -12 3 -18 -10 -15 -37
-14 -33 1 1 6 -6 14 -16 16 -15 3 -18 0 -13 -16 5 -14 1 -21 -15 -25 -15 -4
-19 -2 -15 10 3 8 6 35 6 59 0 54 19 58 51 12z m-72 -4 c3 -16 1 -17 -13 -5
-24 20 -31 6 -19 -39 9 -35 8 -40 -7 -40 -10 0 -18 6 -17 13 0 6 -1 24 -1 39
-2 26 -4 27 -29 17 -19 -7 -29 -7 -31 0 -4 13 -32 15 -32 2 0 -5 9 -12 19 -16
21 -6 34 -31 25 -46 -7 -13 -61 -11 -69 2 -11 17 3 23 20 9 12 -10 19 -10 27
-2 8 8 4 14 -16 22 -38 14 -33 54 7 58 16 2 27 -1 27 -9 0 -8 4 -8 13 -1 12
10 62 21 82 17 6 -1 12 -10 14 -21z"/>
<path d="M6190 1680 c0 -5 5 -10 11 -10 5 0 7 5 4 10 -3 6 -8 10 -11 10 -2 0
-4 -4 -4 -10z"/>
<path d="M5780 1665 c0 -9 6 -12 15 -9 8 4 15 10 15 15 0 5 -7 9 -15 9 -8 0
-15 -7 -15 -15z"/>
<path d="M6395 1601 c-7 -12 12 -24 25 -16 11 7 4 25 -10 25 -5 0 -11 -4 -15
-9z"/>
<path d="M5635 1590 c-9 -15 4 -47 22 -54 26 -10 47 17 34 43 -12 22 -45 28
-56 11z"/>
<path d="M5554 1509 c-3 -6 5 -22 19 -36 l25 -25 7 21 c11 36 -32 70 -51 40z"/>
<path d="M5480 1396 c0 -27 34 -46 52 -28 18 18 4 47 -25 50 -23 3 -27 0 -27
-22z"/>
<path d="M5427 1297 c-4 -10 6 -18 29 -25 33 -10 35 -9 32 11 -4 26 -52 37
-61 14z"/>
<path d="M540 1095 l0 -125 41 0 c69 0 114 40 120 105 4 52 -3 77 -32 110 -28
31 -37 35 -80 35 l-49 0 0 -125z"/>
<path d="M914 1221 c-87 -37 -95 -190 -12 -241 91 -57 194 45 159 159 -20 67
-90 106 -147 82z"/>
<path d="M1250 1095 l0 -125 43 0 c70 0 117 50 117 125 0 75 -47 125 -117 125
l-43 0 0 -125z"/>
<path d="M1618 1219 c-40 -15 -68 -67 -68 -127 0 -43 5 -57 31 -86 77 -89 193
-31 192 95 -1 57 -15 84 -56 109 -35 22 -58 24 -99 9z"/>
<path d="M2060 1170 c0 -49 1 -50 29 -50 68 0 104 36 81 80 -9 16 -21 20 -60
20 l-50 0 0 -50z"/>
<path d="M3273 1145 l-21 -65 48 0 48 0 -21 65 c-12 36 -24 65 -27 65 -3 0
-15 -29 -27 -65z"/>
<path d="M3920 1170 c0 -49 1 -50 29 -50 67 0 99 29 81 75 -8 22 -15 25 -60
25 l-50 0 0 -50z"/>
<path d="M4285 1157 c-10 -28 -20 -58 -23 -64 -3 -9 10 -13 46 -13 l49 0 -21
59 c-12 33 -24 62 -27 65 -3 3 -14 -18 -24 -47z"/>
<path d="M5483 897 c-37 -11 -41 -22 -14 -36 22 -12 55 8 50 30 -3 12 -11 13
-36 6z"/>
<path d="M5511 796 c-15 -18 -4 -46 19 -46 23 0 44 26 36 45 -7 19 -40 20 -55
1z"/>
<path d="M5590 700 c-20 -15 -23 -21 -12 -32 17 -17 46 1 50 31 4 26 -5 26
-38 1z"/>
<path d="M6440 690 c0 -13 18 -22 24 -11 3 5 -1 11 -9 15 -8 3 -15 1 -15 -4z"/>
<path d="M5662 638 c-16 -16 -15 -33 4 -48 13 -11 18 -10 35 6 12 13 17 27 13
37 -7 20 -35 22 -52 5z"/>
<path d="M6355 631 c-6 -11 9 -23 19 -14 9 9 7 23 -3 23 -6 0 -12 -4 -16 -9z"/>
<path d="M5810 565 c0 -8 7 -15 15 -15 8 0 15 4 15 9 0 5 -7 11 -15 15 -9 3
-15 0 -15 -9z"/>
<path d="M5906 534 c-3 -8 1 -14 9 -14 20 0 28 17 11 23 -8 3 -17 -1 -20 -9z"/>
</g>
</svg>
